<svg width="16" height="16" viewBox="0 0 16 16" fill="none" xmlns="http://www.w3.org/2000/svg">
<path d="M7.86664 8.30667C8.77607 8.30667 9.51331 7.56943 9.51331 6.66C9.51331 5.75057 8.77607 5.01334 7.86664 5.01334C6.95721 5.01334 6.21997 5.75057 6.21997 6.66C6.21997 7.56943 6.95721 8.30667 7.86664 8.30667Z" stroke="#83899F" stroke-linecap="round" stroke-linejoin="round"/>
<path d="M4.54663 12.86V11.92C4.54663 10.8267 5.43329 9.94666 6.51996 9.94666H9.4733C10.5666 9.94666 11.4466 10.8333 11.4466 11.92V12.86" stroke="#83899F" stroke-linecap="round" stroke-linejoin="round"/>
<path d="M8.00004 14.1667C11.4058 14.1667 14.1667 11.4058 14.1667 8.00001C14.1667 4.59425 11.4058 1.83334 8.00004 1.83334C4.59428 1.83334 1.83337 4.59425 1.83337 8.00001C1.83337 11.4058 4.59428 14.1667 8.00004 14.1667Z" stroke="#83899F" stroke-linecap="round" stroke-linejoin="round"/>
</svg>
