<svg width="14" height="14" viewBox="0 0 14 14" fill="none" xmlns="http://www.w3.org/2000/svg">
<rect width="14" height="14" rx="2.33333" transform="matrix(0 -1 -1 0 14 14)" fill="#27D08C"/>
<path opacity="0.45" d="M10.7135 4.40294V5.14537C10.7135 5.82469 10.4054 6.19219 9.78552 6.24787C9.72612 6.25529 9.66302 6.259 9.59991 6.259H4.40294C4.33984 6.259 4.27673 6.25529 4.21734 6.24787C3.59741 6.19219 3.28931 5.82469 3.28931 5.14537V4.40294C3.28931 3.66052 3.66052 3.28931 4.40294 3.28931H9.59991C10.3423 3.28931 10.7135 3.66052 10.7135 4.40294Z" fill="white"/>
<path d="M4.5885 6.72302C4.38433 6.72302 4.21729 6.89007 4.21729 7.09423V9.59992C4.21729 10.3423 4.40289 10.7136 5.33092 10.7136H8.67183C9.59986 10.7136 9.78547 10.3423 9.78547 9.59992V7.09423C9.78547 6.89007 9.61842 6.72302 9.41426 6.72302H4.5885ZM7.67698 8.39348H6.32577C6.17357 8.39348 6.04736 8.26726 6.04736 8.11507C6.04736 7.96287 6.17357 7.83666 6.32577 7.83666H7.67698C7.82918 7.83666 7.95539 7.96287 7.95539 8.11507C7.95539 8.26726 7.82918 8.39348 7.67698 8.39348Z" fill="white"/>
</svg>
