<svg width="24" height="24" viewBox="0 0 24 24" fill="none" xmlns="http://www.w3.org/2000/svg">
<circle cx="12" cy="12" r="12" fill="#EAFDE2" fill-opacity="0.79"/>
<path d="M12.9917 15.8392H11.2137C10.0521 15.8392 9.10999 14.8617 9.10999 13.6575C9.10999 13.3671 9.35082 13.1262 9.64124 13.1262C9.93166 13.1262 10.1725 13.3671 10.1725 13.6575C10.1725 14.2737 10.64 14.7767 11.2137 14.7767H12.9917C13.4521 14.7767 13.8346 14.3658 13.8346 13.87C13.8346 13.2537 13.615 13.1333 13.2537 13.0058L10.3992 12C9.84666 11.8087 9.10291 11.3979 9.10291 10.13C9.10291 9.03916 9.95999 8.16083 11.0083 8.16083H12.7862C13.9479 8.16083 14.89 9.13833 14.89 10.3425C14.89 10.6329 14.6492 10.8737 14.3587 10.8737C14.0683 10.8737 13.8275 10.6329 13.8275 10.3425C13.8275 9.72624 13.36 9.22333 12.7862 9.22333H11.0083C10.5479 9.22333 10.1654 9.63416 10.1654 10.13C10.1654 10.7462 10.385 10.8667 10.7462 10.9942L13.6008 12C14.1533 12.1912 14.8971 12.6021 14.8971 13.87C14.89 14.9537 14.04 15.8392 12.9917 15.8392Z" fill="#1E9E23"/>
<path d="M12 16.7812C11.7096 16.7812 11.4688 16.5404 11.4688 16.25V7.75C11.4688 7.45958 11.7096 7.21875 12 7.21875C12.2904 7.21875 12.5312 7.45958 12.5312 7.75V16.25C12.5312 16.5404 12.2904 16.7812 12 16.7812Z" fill="#1E9E23"/>
<path d="M12 19.6146C7.79954 19.6146 4.38538 16.2004 4.38538 12C4.38538 7.7996 7.79954 4.38544 12 4.38544C16.2004 4.38544 19.6145 7.7996 19.6145 12C19.6145 16.2004 16.2004 19.6146 12 19.6146ZM12 5.44794C8.38746 5.44794 5.44788 8.38752 5.44788 12C5.44788 15.6125 8.38746 18.5521 12 18.5521C15.6125 18.5521 18.552 15.6125 18.552 12C18.552 8.38752 15.6125 5.44794 12 5.44794Z" fill="#1E9E23"/>
</svg>
