<svg width="16" height="16" viewBox="0 0 16 16" fill="none" xmlns="http://www.w3.org/2000/svg">
<path d="M3.43298 15.1693C3.15965 15.1693 2.93298 14.9426 2.93298 14.6693V1.33594C2.93298 1.0626 3.15965 0.835938 3.43298 0.835938C3.70632 0.835938 3.93298 1.0626 3.93298 1.33594V14.6693C3.93298 14.9426 3.70632 15.1693 3.43298 15.1693Z" fill="#909BA9"/>
<path d="M10.8997 11.1641H3.43298C3.15965 11.1641 2.93298 10.9374 2.93298 10.6641C2.93298 10.3907 3.15965 10.1641 3.43298 10.1641H10.8997C11.6263 10.1641 11.9663 9.97073 12.033 9.80406C12.0997 9.6374 11.9997 9.26406 11.4797 8.75073L10.6797 7.95073C10.353 7.66406 10.153 7.23073 10.133 6.75073C10.113 6.24406 10.313 5.74406 10.6797 5.3774L11.4797 4.5774C11.973 4.08406 12.1263 3.68406 12.053 3.51073C11.9797 3.3374 11.5997 3.16406 10.8997 3.16406H3.43298C3.15298 3.16406 2.93298 2.9374 2.93298 2.66406C2.93298 2.39073 3.15965 2.16406 3.43298 2.16406H10.8997C12.3597 2.16406 12.8263 2.77073 12.9797 3.13073C13.1263 3.49073 13.2263 4.25073 12.1863 5.29073L11.3863 6.09073C11.2197 6.2574 11.1263 6.49073 11.133 6.72406C11.1397 6.92406 11.2197 7.10406 11.3597 7.23073L12.1863 8.05073C13.2063 9.07073 13.1063 9.83073 12.9597 10.1974C12.8063 10.5507 12.333 11.1641 10.8997 11.1641Z" fill="#909BA9"/>
</svg>
