<svg width="16" height="16" viewBox="0 0 16 16" fill="none" xmlns="http://www.w3.org/2000/svg">
<path d="M12.0134 8.21998L11.2 7.40665C11.0067 7.23998 10.8934 6.99331 10.8867 6.71998C10.8734 6.41998 10.9933 6.11998 11.2133 5.89998L12.0134 5.09998C12.7067 4.40665 12.9667 3.73998 12.7467 3.21331C12.5334 2.69331 11.8734 2.40665 10.9 2.40665H3.93335V1.83331C3.93335 1.55998 3.70668 1.33331 3.43335 1.33331C3.16002 1.33331 2.93335 1.55998 2.93335 1.83331V14.1666C2.93335 14.44 3.16002 14.6666 3.43335 14.6666C3.70668 14.6666 3.93335 14.44 3.93335 14.1666V10.9133H10.9C11.86 10.9133 12.5067 10.62 12.7267 10.0933C12.9467 9.56665 12.6934 8.90665 12.0134 8.21998Z" fill="#238D33"/>
</svg>
