<svg width="14" height="14" viewBox="0 0 14 14" fill="none" xmlns="http://www.w3.org/2000/svg">
<path d="M8.63656 12.8535H5.36347C2.40133 12.8535 1.13574 11.588 1.13574 8.62581V5.35273C1.13574 2.39059 2.40133 1.125 5.36347 1.125H8.63656C11.5987 1.125 12.8643 2.39059 12.8643 5.35273V8.62581C12.8643 11.588 11.5987 12.8535 8.63656 12.8535ZM5.36347 1.94327C2.84866 1.94327 1.95401 2.83791 1.95401 5.35273V8.62581C1.95401 11.1406 2.84866 12.0353 5.36347 12.0353H8.63656C11.1514 12.0353 12.046 11.1406 12.046 8.62581V5.35273C12.046 2.83791 11.1514 1.94327 8.63656 1.94327H5.36347Z" fill="#929395"/>
<path d="M5.90914 12.8535C5.68547 12.8535 5.5 12.6681 5.5 12.4444V1.53414C5.5 1.31047 5.68547 1.125 5.90914 1.125C6.1328 1.125 6.31827 1.31047 6.31827 1.53414V12.4444C6.31827 12.6681 6.1328 12.8535 5.90914 12.8535Z" fill="#929395"/>
<path d="M12.4553 7.3964H5.90914C5.68547 7.3964 5.5 7.21092 5.5 6.98726C5.5 6.7636 5.68547 6.57812 5.90914 6.57812H12.4553C12.679 6.57812 12.8644 6.7636 12.8644 6.98726C12.8644 7.21092 12.679 7.3964 12.4553 7.3964Z" fill="#929395"/>
</svg>
