<svg width="14" height="14" viewBox="0 0 14 14" fill="none" xmlns="http://www.w3.org/2000/svg">
<path d="M7 3.66667C6.64638 3.66667 6.30724 3.52619 6.05719 3.27614C5.80714 3.02609 5.66667 2.68696 5.66667 2.33333C5.66667 1.97971 5.80714 1.64057 6.05719 1.39052C6.30724 1.14048 6.64638 1 7 1C7.35362 1 7.69276 1.14048 7.94281 1.39052C8.19286 1.64057 8.33333 1.97971 8.33333 2.33333C8.33333 2.68696 8.19286 3.02609 7.94281 3.27614C7.69276 3.52619 7.35362 3.66667 7 3.66667ZM7 3.66667V6.33333M7 6.33333C7.53043 6.33333 8.03914 6.54405 8.41421 6.91912C8.78929 7.29419 9 7.8029 9 8.33333C9 8.86377 8.78929 9.37247 8.41421 9.74755C8.03914 10.1226 7.53043 10.3333 7 10.3333C6.46957 10.3333 5.96086 10.1226 5.58579 9.74755C5.21071 9.37247 5 8.86377 5 8.33333C5 7.8029 5.21071 7.29419 5.58579 6.91912C5.96086 6.54405 6.46957 6.33333 7 6.33333ZM3.46667 10.8667L5.33333 9.53333M10.5333 10.8667L8.66667 9.53333M1 11.6667C1 12.0203 1.14048 12.3594 1.39052 12.6095C1.64057 12.8595 1.97971 13 2.33333 13C2.68696 13 3.02609 12.8595 3.27614 12.6095C3.52619 12.3594 3.66667 12.0203 3.66667 11.6667C3.66667 11.313 3.52619 10.9739 3.27614 10.7239C3.02609 10.4738 2.68696 10.3333 2.33333 10.3333C1.97971 10.3333 1.64057 10.4738 1.39052 10.7239C1.14048 10.9739 1 11.313 1 11.6667ZM10.3333 11.6667C10.3333 12.0203 10.4738 12.3594 10.7239 12.6095C10.9739 12.8595 11.313 13 11.6667 13C12.0203 13 12.3594 12.8595 12.6095 12.6095C12.8595 12.3594 13 12.0203 13 11.6667C13 11.313 12.8595 10.9739 12.6095 10.7239C12.3594 10.4738 12.0203 10.3333 11.6667 10.3333C11.313 10.3333 10.9739 10.4738 10.7239 10.7239C10.4738 10.9739 10.3333 11.313 10.3333 11.6667Z" stroke="#83899F" stroke-width="1.02857" stroke-linecap="round" stroke-linejoin="round"/>
</svg>
