<svg width="15" height="14" viewBox="0 0 15 14" fill="none" xmlns="http://www.w3.org/2000/svg">
<g clip-path="url(#clip0_347_2778)">
<path fill-rule="evenodd" clip-rule="evenodd" d="M14.4484 6.15387C14.642 7.74319 14.2849 9.35085 13.4367 10.7088C12.5885 12.0667 11.3005 13.0928 9.78731 13.6161C8.27415 14.1393 6.62735 14.128 5.12152 13.584C3.61569 13.0401 2.34184 11.9963 1.51237 10.6269C1.4221 10.478 1.39466 10.2994 1.4361 10.1303C1.47753 9.96117 1.58444 9.81546 1.73331 9.72519C1.88218 9.63491 2.06081 9.60748 2.22991 9.64891C2.39901 9.69034 2.54473 9.79725 2.635 9.94612C3.08181 10.6839 3.69059 11.3105 4.41527 11.7783C5.13994 12.2461 5.96154 12.543 6.81787 12.6464C7.67421 12.7499 8.54286 12.6572 9.35809 12.3754C10.1733 12.0936 10.9138 11.63 11.5234 11.0198C12.1331 10.4096 12.596 9.66877 12.877 8.85329C13.1581 8.03781 13.25 7.16907 13.1458 6.31283C13.0416 5.45658 12.744 4.63526 12.2755 3.911C11.807 3.18674 11.18 2.57853 10.4417 2.13238C10.2928 2.04233 10.1856 1.8968 10.144 1.72778C10.1023 1.55876 10.1295 1.38011 10.2195 1.23112C10.3095 1.08214 10.4551 0.975025 10.6241 0.933345C10.7931 0.891665 10.9718 0.918834 11.1207 1.00887C12.0292 1.55801 12.8009 2.30658 13.3774 3.19794C13.9539 4.0893 14.3201 5.1001 14.4484 6.15387ZM8.375 0.875C8.375 1.10706 8.28281 1.32962 8.11872 1.49372C7.95462 1.65781 7.73206 1.75 7.5 1.75C7.26794 1.75 7.04538 1.65781 6.88128 1.49372C6.71719 1.32962 6.625 1.10706 6.625 0.875C6.625 0.642936 6.71719 0.420376 6.88128 0.256282C7.04538 0.0921872 7.26794 0 7.5 0C7.73206 0 7.95462 0.0921872 8.11872 0.256282C8.28281 0.420376 8.375 0.642936 8.375 0.875ZM2.9535 4.375C3.01186 4.27545 3.04995 4.16534 3.06559 4.05101C3.08122 3.93668 3.07408 3.82038 3.04459 3.70882C3.01509 3.59726 2.96382 3.49263 2.89373 3.40097C2.82363 3.3093 2.7361 3.23241 2.63616 3.17471C2.53623 3.11701 2.42587 3.07965 2.31143 3.06477C2.197 3.0499 2.08076 3.05781 1.96939 3.08804C1.85803 3.11828 1.75375 3.17024 1.66255 3.24094C1.57135 3.31164 1.49503 3.39968 1.438 3.5C1.3238 3.70086 1.29368 3.93874 1.35422 4.16173C1.41476 4.38472 1.56104 4.57471 1.76114 4.69024C1.96124 4.80577 2.19892 4.83747 2.4223 4.77841C2.64569 4.71935 2.83664 4.57433 2.9535 4.375ZM1.375 6.125C1.60706 6.125 1.82962 6.21719 1.99372 6.38128C2.15781 6.54538 2.25 6.76794 2.25 7C2.25 7.23206 2.15781 7.45462 1.99372 7.61872C1.82962 7.78281 1.60706 7.875 1.375 7.875C1.14294 7.875 0.920376 7.78281 0.756282 7.61872C0.592187 7.45462 0.5 7.23206 0.5 7C0.5 6.76794 0.592187 6.54538 0.756282 6.38128C0.920376 6.21719 1.14294 6.125 1.375 6.125ZM4.875 2.4535C4.97531 2.39647 5.06336 2.32015 5.13406 2.22895C5.20476 2.13775 5.25672 2.03347 5.28696 1.92211C5.31719 1.81074 5.3251 1.6945 5.31023 1.58007C5.29535 1.46563 5.25799 1.35527 5.20029 1.25534C5.14259 1.1554 5.0657 1.06787 4.97403 0.997775C4.88237 0.92768 4.77774 0.876409 4.66618 0.846913C4.55462 0.817418 4.43832 0.810282 4.32399 0.825914C4.20966 0.841547 4.09955 0.87964 4 0.938C3.80067 1.05486 3.65565 1.24581 3.59659 1.4692C3.53753 1.69258 3.56923 1.93026 3.68476 2.13036C3.80029 2.33046 3.99028 2.47674 4.21327 2.53728C4.43626 2.59782 4.67414 2.5677 4.875 2.4535Z" fill="#8995A2"/>
</g>
<defs>
<clipPath id="clip0_347_2778">
<rect width="14" height="14" fill="white" transform="translate(0.5)"/>
</clipPath>
</defs>
</svg>
