<svg width="16" height="16" viewBox="0 0 16 16" fill="none" xmlns="http://www.w3.org/2000/svg">
<path d="M12.8095 7.95237C12.8095 7.03237 13.5562 6.28571 14.4762 6.28571V5.61904C14.4762 2.95237 13.8095 2.28571 11.1428 2.28571H4.47616C1.80949 2.28571 1.14282 2.95237 1.14282 5.61904V5.95237C2.06282 5.95237 2.80949 6.69904 2.80949 7.61904C2.80949 8.53904 2.06282 9.28571 1.14282 9.28571V9.61904C1.14282 12.2857 1.80949 12.9524 4.47616 12.9524H11.1428C13.8095 12.9524 14.4762 12.2857 14.4762 9.61904C13.5562 9.61904 12.8095 8.87237 12.8095 7.95237Z" stroke="#83899F" stroke-width="0.875" stroke-linecap="round" stroke-linejoin="round"/>
<path d="M6.85718 2.28571L6.85718 12.5714" stroke="#83899F" stroke-width="0.875" stroke-linecap="round" stroke-linejoin="round" stroke-dasharray="2.92 2.92"/>
</svg>
