<svg width="16" height="16" viewBox="0 0 16 16" fill="none" xmlns="http://www.w3.org/2000/svg">
<path d="M8.49045 2.46893L8.47295 2.50977L6.78128 6.4356H5.11878C4.72211 6.4356 4.34295 6.51727 3.99878 6.6631L5.01961 4.22477L5.04295 4.16643L5.08378 4.0731C5.09545 4.0381 5.10711 4.0031 5.12461 3.97393C5.88878 2.20643 6.75211 1.80393 8.49045 2.46893Z" stroke="#83899F" stroke-width="0.777778" stroke-linecap="round" stroke-linejoin="round"/>
<path d="M11.6347 6.55227C11.3722 6.4706 11.0922 6.4356 10.8122 6.4356H6.78137L8.47304 2.50977L8.49054 2.46893C8.57804 2.4981 8.65971 2.53893 8.74721 2.57393L10.0364 3.11643C10.7539 3.41393 11.2555 3.7231 11.5589 4.09643C11.6172 4.16643 11.6639 4.2306 11.7047 4.30643C11.7572 4.3881 11.798 4.46977 11.8214 4.55727C11.8447 4.60977 11.8622 4.66227 11.8739 4.70893C12.0314 5.19893 11.938 5.79977 11.6347 6.55227Z" stroke="#83899F" stroke-width="0.777778" stroke-linecap="round" stroke-linejoin="round"/>
<path d="M13.6598 9.2824V10.4199C13.6598 10.5366 13.6539 10.6532 13.6481 10.7699C13.5373 12.8057 12.3998 13.8324 10.2414 13.8324H5.69143C5.55143 13.8324 5.41143 13.8207 5.27726 13.8032C3.42226 13.6807 2.4306 12.6891 2.3081 10.8341C2.2906 10.6999 2.27893 10.5599 2.27893 10.4199V9.2824C2.27893 8.1099 2.9906 7.10073 4.0056 6.66323C4.3556 6.5174 4.72893 6.43573 5.1256 6.43573H10.8189C11.1048 6.43573 11.3848 6.47656 11.6414 6.5524C12.8023 6.90823 13.6598 7.99323 13.6598 9.2824Z" stroke="#83899F" stroke-width="0.777778" stroke-linecap="round" stroke-linejoin="round"/>
<path d="M5.01959 4.22473L3.99876 6.66306C2.98376 7.10056 2.27209 8.10973 2.27209 9.28223V7.57306C2.27209 5.9164 3.45043 4.5339 5.01959 4.22473Z" stroke="#83899F" stroke-width="0.777778" stroke-linecap="round" stroke-linejoin="round"/>
<path d="M13.658 7.57278V9.28195C13.658 7.99861 12.8063 6.90778 11.6396 6.55778C11.943 5.79945 12.0305 5.20445 11.8846 4.70861C11.873 4.65611 11.8555 4.60361 11.8321 4.55695C12.9171 5.11695 13.658 6.26611 13.658 7.57278Z" stroke="#83899F" stroke-width="0.777778" stroke-linecap="round" stroke-linejoin="round"/>
</svg>
